<svg class="icon" viewBox="0 0 1024 1024" xmlns="http://www.w3.org/2000/svg" width="200" height="200"><path d="M533.333 768C352 768 256 672 256 490.667c0-12.8 8.533-21.334 21.333-21.334s21.334 8.534 21.334 21.334c0 157.866 76.8 234.666 234.666 234.666 12.8 0 21.334 8.534 21.334 21.334S546.133 768 533.333 768z"/><path d="M533.333 768c-6.4 0-10.666-2.133-14.933-6.4l-85.333-85.333c-8.534-8.534-8.534-21.334 0-29.867s21.333-8.533 29.866 0l85.334 85.333c8.533 8.534 8.533 21.334 0 29.867-4.267 4.267-8.534 6.4-14.934 6.4z"/><path d="M448 853.333c-6.4 0-10.667-2.133-14.933-6.4-8.534-8.533-8.534-21.333 0-29.866l85.333-85.334c8.533-8.533 21.333-8.533 29.867 0s8.533 21.334 0 29.867l-85.334 85.333c-4.266 4.267-8.533 6.4-14.933 6.4zm-49.067-448-106.666-275.2c0-2.133-2.134-4.266-4.267-4.266h-46.933c-4.267 2.133-6.4 4.266-6.4 6.4L128 405.333v4.267c0 2.133 2.133 2.133 4.267 2.133h44.8c2.133 0 4.266-2.133 4.266-4.266l25.6-66.134h110.934l25.6 66.134c0 2.133 2.133 4.266 4.266 4.266h44.8c2.134 0 4.267 0 4.267-2.133 2.133 0 2.133-2.133 2.133-4.267zm-96-108.8h-76.8L262.4 192l40.533 104.533zm578.134 469.334c-6.4-8.534-17.067-14.934-29.867-19.2 8.533-4.267 14.933-10.667 21.333-19.2 8.534-10.667 12.8-25.6 12.8-42.667 0-23.467-8.533-40.533-23.466-53.333-17.067-12.8-38.4-21.334-66.134-21.334H669.867c-2.134 0-6.4 2.134-6.4 6.4v275.2c0 2.134 2.133 6.4 6.4 6.4h125.866c29.867 0 53.334-6.4 70.4-17.066C887.467 866.133 896 844.8 896 814.933c0-21.333-4.267-36.266-14.933-49.066zm-166.4 6.4h74.666c19.2 0 32 4.266 40.534 10.666 8.533 6.4 12.8 17.067 12.8 32 0 12.8-6.4 23.467-17.067 29.867-10.667 4.267-23.467 8.533-38.4 8.533h-72.533v-81.066zm106.666-53.334c-8.533 6.4-21.333 8.534-38.4 8.534h-68.266v-70.4h68.266c17.067 0 29.867 2.133 38.4 8.533 6.4 4.267 10.667 12.8 10.667 25.6s-4.267 21.333-10.667 27.733z"/></svg>