<svg class="icon" viewBox="0 0 1024 1024" xmlns="http://www.w3.org/2000/svg" width="200" height="200"><path d="M475.25 690.176h-48.356l-19.228-49.948h-87.837l-18.204 49.948H254.52l85.675-219.819h46.648zm-81.806-87.154-30.265-81.578-29.696 81.578zm105.358 87.154V470.357h71.225a252.814 252.814 0 0 1 52.793 3.3 57.685 57.685 0 0 1 31.63 21.504 68.267 68.267 0 0 1 12.743 42.78 69.973 69.973 0 0 1-7.396 34.134 59.392 59.392 0 0 1-18.66 21.731 63.943 63.943 0 0 1-22.755 10.468 259.64 259.64 0 0 1-45.51 3.072h-29.697v82.944zm44.373-182.044v62.35h24.235a116.395 116.395 0 0 0 35.157-3.414 29.355 29.355 0 0 0 13.881-10.808 29.81 29.81 0 0 0 5.006-17.067 28.33 28.33 0 0 0-7.054-20.366 30.379 30.379 0 0 0-17.863-9.785 210.375 210.375 0 0 0-31.972-1.48zM702.35 690.176V470.357h44.374v219.819z"/><path d="M761.173 832.853H525.881v-52.337h235.292c67.698 0 121.629-29.696 152.007-83.74a205.369 205.369 0 0 0-3.868-199.795c-36.409-59.847-102.4-91.022-186.254-88.405l-26.966 1.024v-27.193c0-56.889-19-104.334-54.727-136.533a181.248 181.248 0 0 0-122.31-44.487c-88.406 0-187.279 56.889-187.279 181.248V409.6l-27.534-1.48c-85.22-4.323-152.349 25.942-189.44 85.334a198.428 198.428 0 0 0-4.665 196.608c32.199 58.14 91.022 90.112 166.115 90.112h95.005v52.338h-95.005c-93.411 0-170.666-42.667-211.854-116.964a251.676 251.676 0 0 1 6.03-250.31c43.577-69.746 117.533-108.317 210.262-110.251C293.547 219.819 408.804 148.82 519.054 148.82a233.472 233.472 0 0 1 157.469 58.027 222.55 222.55 0 0 1 70.77 149.39c91.022 3.527 164.067 43.35 206.734 113.778a255.545 255.545 0 0 1 4.778 252.587c-39.48 69.973-111.502 110.25-197.632 110.25z"/><path d="m486.059 806.912 91.022 68.267V738.645l-91.022 68.267z"/></svg>