<svg class="icon" viewBox="0 0 1024 1024" xmlns="http://www.w3.org/2000/svg" width="200" height="200"><path d="M572 0c248.368 0 452 203.568 452 452 0 248.368-203.568 452-452 452-39.28 0-78.992-5.08-116.336-14.776C416.608 968.96 334.616 1024 240 1024 113.424 1024 0 924.032 0 778.616c0-50.24 14.848-102.384 42.936-150.8C54.256 608.296 60 589.512 60 572c0-51.712-49.576-97.256-50.08-97.712a30.064 30.064 0 0 1-7.872-33.056A29.984 29.984 0 0 1 30 422c32.24 0 62.8 7.312 90.12 20.344C125.28 198.184 326.976 0 572 0zM420 784v-30c0-39.184-25.44-73.584-60-86.528V694c0 49.624-40.376 90-90 90s-90-40.376-90-90v-62c0-56.416-31.32-105.664-77.472-131.272C112.56 521.512 120 545.768 120 572c0 28.224-8.472 57.128-25.168 85.92C72.048 697.2 60 738.936 60 778.616 60 890.552 146.12 964 240 964c99.248 0 180-80.744 180-180zm334-362a30 30 0 0 1 0 60H572a30 30 0 0 1-30-30V270a30 30 0 0 1 60 0v152h152zM436.304 647.176a152.984 152.984 0 0 1 35.792 58.408C503.056 717.504 538.016 724 572 724c149.984 0 272-122.016 272-272 0-149.984-122.016-272-272-272-149.984 0-272 122.016-272 272 0 54.36 15.984 106.24 46.272 150.92 33.936 3.736 65.448 19.104 90.032 44.256zM572 844c216.152 0 392-175.848 392-392S788.152 60 572 60 180 235.848 180 452c0 11.592.528 23.248 1.552 34.776C217.736 524.528 240 575.712 240 632v62a30.032 30.032 0 0 0 30 30 30.032 30.032 0 0 0 30-30v-52.472C260.72 585.8 240 520.496 240 452c0-182.128 149.808-332 332-332 182.136 0 332 149.808 332 332 0 182.128-149.808 332-332 332-31.264 0-62.4-4.336-92-12.64V784c0 16.528-1.68 32.664-4.88 48.256A406.224 406.224 0 0 0 572 844z"/></svg>