<svg class="icon" viewBox="0 0 1024 1024" xmlns="http://www.w3.org/2000/svg" width="200" height="200"><path d="m649.996 721.998-10-161.998-114-12 15.376-153.998H24v511.994l769.994-14V736.998z" fill="#ED5564"/><path d="m775.994 189.348-81.31-46.656-120-28-10.688 65.344 17.344 70.654 26.656 73.344 30.688 24 42.656 14.656 39.998-6.656 72.656-29.344 6-41.314v-57.342z" fill="#E6E9ED"/><path d="m874.992 372.502-60.498 53.5L899.492 531s52.5 27 55 26.5 26.5-8 26.5-8l21.5-48-127.5-128.998z" fill="#FFCE54"/><path d="M661.34 540H554.684V369.314H0v554.682h810.682v-213.31H661.34V540zm-42.656 42.688v127.998H405.34V582.688h213.344zm-469.342 0h213.344v127.998H149.342V582.688zm149.344-170.686h213.31V540H298.684V412.002zm-256.03 0h213.342V540H42.656V412.002zm0 170.686h64v127.998h-64V582.688zM255.998 881.34H42.656V753.342H256V881.34zm255.998 0h-213.31V753.342h213.312V881.34zm256.03-127.998V881.34H554.684V753.342h213.342zm237.248-279.936-135.782-135.78-30.156 30.188-31.53-31.532c15.312-22.094 22.844-48.906 21.406-77.468-1.75-35.25-17.062-69.03-43.062-95.06-23.812-23.782-64.124-39.062-93.748-47.656-34.156-9.906-72-16.094-98.75-16.094-20.468 0-33.094 3.5-40.938 11.376-8.624 8.624-12.094 23.376-11.218 47.812.624 17.844 3.624 39.874 8.438 62.124 5.688 26.188 22.438 90.718 55.188 123.5 27.5 27.468 64.562 43.218 101.748 43.218 25.968 0 50.438-7.594 70.718-21.594l31.594 31.562-30.188 30.156 135.78 135.78c12.062 12.062 28.156 18.75 45.25 18.75s33.156-6.688 45.25-18.75c24.968-24.97 24.968-65.562 0-90.532zM706.87 345.376c-25.936 0-52.03-11.218-71.56-30.75-16.032-16-31.718-51.468-41.968-94.812-8.75-36.936-10.094-64.936-8.938-76.716 2.188-.218 5.188-.406 9.25-.406 44.718 0 132.592 21.5 162.342 51.248 18.5 18.5 29.376 42.312 30.624 67 .782 16.124-2.624 31.312-9.782 44.376L763.9 292.378c-8.312-8.312-21.844-8.312-30.156 0a21.332 21.332 0 0 0 0 30.188l12.906 12.876c-11.812 6.466-25.406 9.934-39.78 9.934zM975.118 533.75c-4.032 4.032-9.406 6.25-15.094 6.25s-11.062-2.218-15.094-6.25L839.336 428.158l30.156-30.156 105.624 105.56c8.314 8.344 8.314 21.876.002 30.188z" fill="#080808"/></svg>